<svg id="Capa_1" enable-background="new 0 0 512 512" height="512" viewBox="0 0 512 512" width="512" xmlns="http://www.w3.org/2000/svg"><g><path d="m497 241h-84.93c-5.312 0-10.228 2.81-12.924 7.387-2.696 4.576-2.771 10.238-.196 14.885 2.104 3.795 3.17 7.95 3.17 12.349 0 14.133-11.493 25.63-25.62 25.63s-25.62-11.497-25.62-25.63c0-4.398 1.066-8.554 3.17-12.349 2.575-4.646 2.5-10.309-.196-14.885-2.696-4.577-7.612-7.387-12.924-7.387h-69.93v-69.92c0-5.312-2.81-10.228-7.386-12.924-4.577-2.696-10.239-2.771-14.884-.196-3.742 2.074-8.013 3.17-12.35 3.17-14.132 0-25.63-11.497-25.63-25.63 0-14.127 11.498-25.62 25.63-25.62 4.337 0 8.607 1.096 12.35 3.17 4.645 2.573 10.307 2.501 14.884-.196 4.577-2.696 7.386-7.612 7.386-12.924v-84.93c0-8.284-6.716-15-15-15h-241c-8.284 0-15 6.716-15 15v482c0 8.284 6.716 15 15 15h482c8.284 0 15-6.716 15-15v-241c0-8.284-6.716-15-15-15zm-467-211h211v50.072c-1.534-.128-3.076-.192-4.62-.192-30.674 0-55.63 24.951-55.63 55.62 0 30.675 24.956 55.63 55.63 55.63 1.544 0 3.086-.064 4.62-.192v50.062h-50.072c.128-1.534.192-3.075.192-4.62 0-30.675-24.951-55.63-55.62-55.63s-55.62 24.955-55.62 55.63c0 1.545.064 3.086.192 4.62h-50.072zm211 452h-211v-211h69.93c5.312 0 10.228-2.81 12.924-7.387 2.359-4.004 2.711-8.84 1.037-13.099-.239-.608-.52-1.205-.841-1.786-2.104-3.795-3.17-7.95-3.17-12.349 0-14.133 11.493-25.63 25.62-25.63s25.62 11.497 25.62 25.63c0 4.398-1.066 8.554-3.17 12.349-.322.581-.602 1.177-.841 1.786-1.674 4.259-1.322 9.095 1.037 13.099 2.696 4.577 7.612 7.387 12.924 7.387h69.93v50.072c-1.534-.128-3.076-.192-4.62-.192-30.674 0-55.63 24.951-55.63 55.62 0 30.675 24.956 55.63 55.63 55.63 1.544 0 3.086-.064 4.62-.192zm241 0h-211v-69.92c0-5.312-2.81-10.228-7.386-12.924-4.577-2.696-10.239-2.771-14.884-.196-3.742 2.074-8.013 3.17-12.35 3.17-14.132 0-25.63-11.497-25.63-25.63 0-14.127 11.498-25.62 25.63-25.62 4.337 0 8.607 1.096 12.35 3.17 4.645 2.574 10.307 2.5 14.884-.196s7.386-7.612 7.386-12.924v-69.93h50.072c-.128 1.534-.192 3.075-.192 4.62 0 30.675 24.951 55.63 55.62 55.63s55.62-24.955 55.62-55.63c0-1.545-.064-3.086-.192-4.62h50.072z"/><path d="m344.997 86.013c8.284 0 15-6.716 15-15v-.262c0-9.1 7.403-16.503 16.503-16.503s16.503 7.403 16.503 16.503c0 7.441-3.588 14.505-9.598 18.895-13.716 10.018-21.905 26.137-21.905 43.121 0 8.284 6.716 15 15 15s15-6.716 15-15c0-7.441 3.588-14.505 9.598-18.895 13.716-10.018 21.905-26.138 21.905-43.121 0-25.642-20.861-46.503-46.503-46.503s-46.503 20.861-46.503 46.503v.262c0 8.284 6.716 15 15 15z"/><path d="m376.5 180.75c-7.846 0-15.363 6.899-15 15 .364 8.127 6.591 15 15 15 7.846 0 15.363-6.899 15-15-.364-8.127-6.591-15-15-15z"/></g></svg>