<svg clip-rule="evenodd" fill-rule="evenodd" height="300" image-rendering="optimizeQuality" shape-rendering="geometricPrecision" text-rendering="geometricPrecision" viewBox="0 0 512 512" width="300" xmlns="http://www.w3.org/2000/svg" version="1.1" xmlns:xlink="http://www.w3.org/1999/xlink" xmlns:svgjs="http://svgjs.dev/svgjs"><g transform="matrix(1,0,0,1,0,0)"><g id="Layer_x0020_1"><path d="m505 511.999h-170.999c-3.90001 0-7.00042-3.1004-7.00042-7.00042v-57.0002c0-5.71419 6.87404-9.0331 11.4-5.50041 15.8457 12.3709 42.6001-1.04292 42.6001-22.5001 0-22.6654-27.606-35.7792-42.6001-23.5005-4.45159 3.64489-11.4.168898-11.4-5.50041v-57.0002c0-3.90001 3.1004-7.00042 7.00042-7.00042l45.6994.00236221c-7.7953-26.2312 11.7532-54.0002 39.3001-54.0002 27.6013 0 48.0273 27.9993 40.3005 54.0002h45.6994c3.90001 0 7.00042 3.1004 7.00042 7.00042v171.001c0 3.89883-3.1004 6.99923-7.00042 6.99923zm0-272.998h-56.999c-5.47325 0-8.93034-6.29648-5.89962-10.9004 11.9599-18.169-.0259843-43.0997-23.2005-43.0997-23.4024 0-32.895 23.6883-22.6997 43.9005 2.32678 4.6134-1.15748 10.0996-6.30002 10.0996h-56.001c-3.90001 0-7.00042-3.1004-7.00042-7.00042v-57.0002c0-5.71419 6.87404-9.0331 11.4-5.50041 16.1682 12.6225 42.6001-1.71851 42.6001-23.5005 0-21.9237-25.5001-33.6178-43.4009-22.9997-4.60277 2.73072-10.6996-.622443-10.6996-6.00002l.00118111-55.9986c0-3.90001 3.1004-7.00042 7.00042-7.00042h45.7997c-8.34688-26.4308 11.6221-54.0002 39.1997-54.0002 28.2001 0 48.6238 27.3296 40.2001 54.0002h45.9994c3.90001 0 7.00042 3.1004 7.00042 7.00042v171.001c0 3.89883-3.1004 6.99923-7.00042 6.99923zm-45.9994-14.0008h39.0001v-157h-49.9998c-5.50395 0-8.89018-6.28585-5.89962-10.9004 11.8867-18.3438-.804333-43.1009-23.2005-43.1009-22.1056 0-34.2674 24.9048-22.2001 43.1009 3.02127 4.55553-.377954 10.9004-5.89962 10.9004h-50.0009v38.5997c26.569-6.81498 54.0002 11.1662 54.0002 39.3993 0 27.6013-27.9993 48.0273-54.0002 40.3005v38.7001h38.8005c-7.30514-26.7839 10.0122-54.0002 39.1997-54.0002 28.8025 0 48.3722 27.5824 40.2001 54.0002zm-312.999 66.9994c-27.8788 0-48.4903-27.2269-39.9001-52.9986h-45.0994c-3.90001 0-7.00042-3.1004-7.00042-7.00042v-45.7997c-25.9666 8.20042-54.0002-12.8363-54.0002-40.2001 0-27.143 27.867-47.1391 54.0002-39.3001v-45.6994c0-3.90001 3.1004-7.00042 7.00042-7.00042h45.1997c-9.31538-26.5087 11.7555-54.0002 39.7997-54.0002s49.1151 27.4914 39.7997 54.0002h45.1997c3.90001 0 7.00042 3.1004 7.00042 7.00042v45.7005c26.132-7.839 53.999 12.1583 53.999 39.3001 0 27.3639-28.0336 48.4005-53.999 40.2001v45.7986c0 3.90001-3.1004 7.00042-7.00042 7.00042h-45.0994c8.59018 25.7717-12.0213 52.9986-39.9001 52.9986zm-78.0002-66.9994h49.0005c5.3008 0 8.76381 6.10868 6.00002 10.6996-12.6272 20.9729 1.62284 42.3993 23.0009 42.3993 21.3745 0 35.6269-21.417 23.0009-42.3993-2.76497-4.5945.648427-10.6996 6.00002-10.6996h48.9982v-49.9998c0-5.50395 6.28585-8.89018 10.9004-5.89962 18.3662 11.9008 43.0997-.77953 43.0997-23.2005 0-20.3776-21.4123-33.9403-43.8993-22.6997-4.61694 2.30788-10.0996-1.14331-10.0996-6.30002l-.00118111-48.9002h-49.0005c-5.13545 0-8.59018-5.51813-6.30002-10.0996 2.8004-5.59962 5.29962-10.5 5.29962-15.9 0-15.7004-12.3-28.0005-28.0005-28.0005-15.7004 0-28.0005 12.3-28.0005 28.0005 0 9.18546 8.72483 16.6843 4.99962 22.6997-1.3004 2.10001-3.49962 3.30001-6.00002 3.30001h-48.9982v49.0005c0 5.13545-5.51813 8.59018-10.0996 6.30002-22.4835-11.2418-43.9005 2.32087-43.9005 22.6997 0 22.2509 24.8682 35.2914 43.1009 23.2005 4.55553-3.02127 10.9004.377954 10.9004 5.89962l-.00118111 49.8994zm163 286.999h-169.999c-3.90001 0-7.00042-3.1004-7.00042-7.00042v-45.7005c-26.1332 7.839-54.0002-12.1583-54.0002-39.3001 0-27.3639 28.0336-48.4005 54.0002-40.2001v-45.7986c0-3.90001 3.1004-7.00042 7.00042-7.00042h55.9998c5.13545 0 8.59018 5.51813 6.30002 10.0996-2.8004 5.59962-5.29962 10.5-5.29962 15.9 0 15.7004 12.3 28.0005 28.0005 28.0005 15.7004 0 28.0005-12.3 28.0005-28.0005 0-9.18546-8.72483-16.6843-4.99962-22.6997 1.3004-2.10001 3.49962-3.30001 6.00002-3.30001h55.9974c3.90001 0 7.00042 3.1004 7.00042 7.00042v45.7997c25.9654-8.20042 53.999 12.8363 53.999 40.2001 0 27.143-27.867 47.1391-53.999 39.3001v45.6994c0 3.90001-3.1004 7.00042-7.00042 7.00042zm-163-13.9996h156v-49.0005c0-5.13545 5.51813-8.59018 10.0996-6.30002 22.4824 11.2418 43.8993-2.32087 43.8993-22.6997 0-22.2509-24.8682-35.2914-43.0997-23.2005-4.55553 3.02127-10.9004-.377954-10.9004-5.89962v-49.9998h-38.1993c9.31538 26.5087-11.7555 54.0002-39.7997 54.0002s-49.1151-27.4914-39.7997-54.0002h-38.2005v49.9998c0 5.50395-6.28585 8.89018-10.9004 5.89962-18.3662-11.9008-43.1009.780711-43.1009 23.2005 0 20.3776 21.4135 33.9403 43.9005 22.6997 4.61694-2.30788 10.0996 1.14331 10.0996 6.30002l.00118111 49.0005zm272.998 0h157.001v-157.001h-49.9998c-5.71419 0-9.0331-6.87404-5.50041-11.4 12.6225-16.1682-1.71851-42.6001-23.5005-42.6001-22.2485 0-34.558 27.8753-22.5001 42.6001 3.64489 4.45159.168898 11.4-5.50041 11.4h-49.9998v38.7001c26.0009-7.7268 54.0002 12.6993 54.0002 40.3005 0 27.5481-27.769 47.0954-54.0002 39.3001v38.7001z" fill="#52050dff" data-original-color="#52050dff" stroke="none"/><path d="m418.8 170.999c28.8025 0 48.3722 27.5824 40.2001 54.0002h39.0001v-157h-49.9998c-5.50395 0-8.89018-6.28585-5.89962-10.9004 11.8867-18.3438-.804333-43.1009-23.2005-43.1009-22.1056 0-34.2674 24.9048-22.2001 43.1009 3.02127 4.55553-.377954 10.9004-5.89962 10.9004h-50.0009v38.5997c26.569-6.81498 54.0002 11.1662 54.0002 39.3993 0 27.6013-27.9993 48.0273-54.0002 40.3005v38.7001h38.8005c-7.30514-26.7839 10.0122-54.0002 39.1997-54.0002z" fill="#f3a766ff" data-original-color="#ff4500ff" stroke="none"/><path d="m448.001 340.998c-5.71419 0-9.0331-6.87404-5.50041-11.4 12.6225-16.1682-1.71851-42.6001-23.5005-42.6001-22.2485 0-34.558 27.8753-22.5001 42.6001 3.64489 4.45159.168898 11.4-5.50041 11.4h-49.9998v38.7001c26.0009-7.7268 54.0002 12.6993 54.0002 40.3005 0 27.5481-27.769 47.0954-54.0002 39.3001v38.7001h157.001v-157.001h-49.9998z" fill="#d9f2f2ff" data-original-color="#ffd300ff" stroke="none"/><path d="m234.901 396.798c-4.55553 3.02127-10.9004-.377954-10.9004-5.89962v-49.9998h-38.1993c9.31538 26.5087-11.7555 54.0002-39.7997 54.0002s-49.1151-27.4914-39.7997-54.0002h-38.2005v49.9998c0 5.50395-6.28585 8.89018-10.9004 5.89962-18.3662-11.9008-43.1009.780711-43.1009 23.2005 0 20.3776 21.4135 33.9403 43.9005 22.6997 4.61694-2.30788 10.0996 1.14331 10.0996 6.30002l.00118111 49.0005h156v-49.0005c0-5.13545 5.51813-8.59018 10.0996-6.30002 22.4824 11.2418 43.8993-2.32087 43.8993-22.6997 0-22.2509-24.8682-35.2914-43.0997-23.2005z" fill="#f3a766ff" data-original-color="#ff4500ff" stroke="none"/><path d="m175.003 225h48.9982v-49.9998c0-5.50395 6.28585-8.89018 10.9004-5.89962 18.3662 11.9008 43.0997-.77953 43.0997-23.2005 0-20.3776-21.4123-33.9403-43.8993-22.6997-4.61694 2.30788-10.0996-1.14331-10.0996-6.30002l-.00118111-48.9002h-49.0005c-5.13545 0-8.59018-5.51813-6.30002-10.0996 2.8004-5.59962 5.29962-10.5 5.29962-15.9 0-15.7004-12.3-28.0005-28.0005-28.0005-15.7004 0-28.0005 12.3-28.0005 28.0005 0 9.18546 8.72483 16.6843 4.99962 22.6997-1.3004 2.10001-3.49962 3.30001-6.00002 3.30001h-48.9982v49.0005c0 5.13545-5.51813 8.59018-10.0996 6.30002-22.4835-11.2418-43.9005 2.32087-43.9005 22.6997 0 22.2509 24.8682 35.2914 43.1009 23.2005 4.55553-3.02127 10.9004.377954 10.9004 5.89962l-.00118111 49.8994h49.0005c5.3008 0 8.76381 6.10868 6.00002 10.6996-12.6272 20.9729 1.62284 42.3993 23.0009 42.3993 21.3745 0 35.6269-21.417 23.0009-42.3993-2.76497-4.5945.648427-10.6996 6.00002-10.6996z" fill="#d9f2f2ff" data-original-color="#ffd300ff" stroke="none"/></g></g></svg>